<?xml version="1.0" encoding="utf-8"?>
<!-- Generator: Adobe Illustrator 17.0.0, SVG Export Plug-In . SVG Version: 6.00 Build 0)  -->
<!DOCTYPE svg PUBLIC "-//W3C//DTD SVG 1.1//EN" "http://www.w3.org/Graphics/SVG/1.1/DTD/svg11.dtd">
<svg version="1.1" id="Untitled-Page_x25_201" xmlns="http://www.w3.org/2000/svg" xmlns:xlink="http://www.w3.org/1999/xlink"
	 x="0px" y="0px" width="135px" height="135px" viewBox="0 -0.5 135 135" enable-background="new 0 -0.5 135 135"
	 xml:space="preserve">
<path fill="none" d="z"/>
<path fill="none" stroke="#2E2929" stroke-width="2" d="M14.232,97.528L14.232,97.528z"/>
<path fill="#323231" d="M47.597,100.919l-1.883-1.906L47.597,100.919L47.597,100.919z"/>
<g>
	<path fill="#FFFFFF" d="M132.939,4.778c-0.305-1.639-1.572-2.923-3.191-3.231c-7.139-1.359-14.17-2.047-20.9-2.047
		c-28.586,0-49.436,12.298-64.123,26.896c-28.868-8.06-44.52,25.83-44.52,25.83s13.451-1.635,21.067,6.983
		c-4.305,8.529-6.233,14.545-6.299,14.754c-0.411,1.327-0.121,2.775,0.769,3.834c0.89,1.062,2.251,1.588,3.614,1.386
		c0.68-0.097,1.347-0.148,1.983-0.148c3.714,0,6.498,1.833,8.58,4.311c-2.194,1.301-22.392,14.034-19.587,40.62
		c0,0,24.044,7.841,42.081-17.93c2.685,2.446,4.512,5.842,3.851,10.52c-0.194,1.376,0.322,2.759,1.369,3.66
		c0.733,0.631,1.654,0.963,2.591,0.963c0.401,0,0.805-0.061,1.197-0.186c0.227-0.071,6.166-2.035,14.571-6.389
		c7.01,7.845,5.566,19.991,5.566,19.991s31.813-15.071,26.02-42.924C125.66,73.4,140.498,45.458,132.939,4.778z M23.382,112.076
		c-1.256-12.112,6.601-19.72,10.141-22.498c1.505,3.745,2.017,7.07,2.027,7.143c0.251,1.776,1.634,3.174,3.386,3.435
		c0.323,0.047,3.627,0.57,7.275,2.092C32.041,115.814,23.382,112.076,23.382,112.076z M64.147,111.361
		c-1.006-6.121-4.921-11.28-11.426-14.885c-2.661-1.473-5.369-2.48-7.597-3.15l27.631-27.974c0.781-0.791,0.781-2.072,0-2.864
		c-0.781-0.791-2.047-0.791-2.828,0L42.303,90.456c-1.938-6.629-6.759-17.509-17.803-19.275C30.947,55.043,54.522,7.6,108.848,7.6
		c5.387,0,10.994,0.479,16.707,1.424C136.434,76.186,81.65,104.21,64.147,111.361z"/>
	<path fill="#FFFFFF" d="M101.773,19.406c-3.613,0-7.012,1.426-9.568,4.014c-5.271,5.341-5.271,14.03,0.002,19.366
		c2.555,2.595,5.953,4.024,9.566,4.024c3.613,0,7.012-1.428,9.57-4.018c5.273-5.335,5.277-14.027,0.002-19.372
		C108.789,20.832,105.389,19.406,101.773,19.406z M108.514,39.928c-1.801,1.825-4.193,2.832-6.74,2.832
		c-2.543,0-4.936-1.007-6.736-2.836c-3.715-3.759-3.717-9.88-0.002-13.641c1.801-1.823,4.193-2.828,6.738-2.828
		c2.547,0,4.941,1.004,6.742,2.828C112.23,30.049,112.23,36.169,108.514,39.928z"/>
</g>
<path fill="none" d="z"/>
</svg>
